<svg t="1657022936555" class="icon" viewBox="0 0 1024 1024" version="1.1" xmlns="http://www.w3.org/2000/svg" p-id="998" width="200" height="200"><path d="M897.8944 178.8928c-0.9728-8.1408-5.12-15.5136-11.5712-20.5824-0.8704-0.6656-21.3504-16.64-53.6064-40.4992a30.6688 30.6688 0 0 0-30.3616-3.5328c-175.6672 75.1104-277.0432 2.304-281.088-0.6656a30.65344 30.65344 0 0 0-37.3248 0c-1.024 0.768-103.3728 76.6464-281.088 0.6656a30.80704 30.80704 0 0 0-30.3616 3.5328c-32.2048 23.8592-52.736 39.8336-53.5552 40.4992-6.4512 5.0176-10.6496 12.4416-11.5712 20.5824s1.3312 16.2816 6.4512 22.7328c0.6656 0.8704 66.816 86.2208 35.8912 213.504-18.3296 75.3664-37.2736 153.2928-20.7872 227.1232 19.4048 86.9376 84.0704 148.5824 197.6832 188.4672 0.4096 0.1536 0.8192 0.256 1.2288 0.4096 79.4112 24.1152 132.3008 69.5808 151.04 92.6208 5.8368 7.168 14.592 11.3664 23.8592 11.3664s18.0224-4.1472 23.8592-11.3664c18.7392-23.04 71.6288-68.5056 151.04-92.6208 0.4096-0.1024 0.8192-0.256 1.2288-0.4096 113.6128-39.8848 178.2272-101.5296 197.6832-188.4672 16.4864-73.8304-2.4576-151.7568-20.7872-227.1232-30.6688-126.0032 33.2288-210.1248 35.8912-213.504 4.864-6.4512 7.2192-14.6432 6.2464-22.7328z" fill="#6FE0FF" p-id="999"></path><path d="M344.064 836.4544c70.3488 25.0368 117.2992 65.792 134.7072 87.2448 5.8368 7.168 14.592 11.3664 23.8592 11.3664s18.0224-4.1472 23.8592-11.3664c18.7392-23.04 71.6288-68.5056 151.04-92.6208 0.4096-0.1024 0.8192-0.256 1.2288-0.4096 113.6128-39.8848 178.2272-101.5296 197.6832-188.4672 15.7696-70.656-0.8704-144.9984-18.432-217.344-12.032-0.9216-24.2176-1.3824-36.5056-1.3824-242.8928 0.0512-443.8016 179.456-477.44 412.9792z" fill="#55D7FF" p-id="1000"></path><path d="M130.6112 500.6336c7.424 0.3584 14.8992 0.512 22.4256 0.512 222.2592 0 409.3952-150.3232 465.3056-354.8672-60.9792-6.8096-94.7712-31.0784-97.0752-32.768a30.65344 30.65344 0 0 0-37.3248 0c-1.024 0.768-103.3728 76.6464-281.088 0.6656a30.80704 30.80704 0 0 0-30.3616 3.5328c-32.2048 23.8592-52.736 39.8336-53.5552 40.4992-6.4512 5.0176-10.6496 12.4416-11.5712 20.5824s1.3312 16.2816 6.4512 22.7328c0.6656 0.8704 66.816 86.2208 35.8912 213.504-6.9632 28.3648-13.9264 56.9856-19.0976 85.6064z" fill="#9AEFFF" p-id="1001"></path><path d="M428.288 557.6192c-9.728-10.24-25.9584-10.6496-36.1984-0.9216l-10.8032 10.2912 21.1456-145.0496a25.62048 25.62048 0 0 0-31.232-28.6208l-68.1472 16.0768a25.6 25.6 0 0 0-19.0464 30.7712c3.2256 13.7728 17.0496 22.3232 30.7712 19.0464l31.5392-7.424-26.368 180.992a25.59488 25.59488 0 0 0 25.344 29.2864c6.4 0 12.7488-2.4064 17.6128-7.0144l64.4608-61.184c10.24-9.8304 10.6496-26.0096 0.9216-36.2496zM331.2128 369.3568c4.9664 7.168 12.9536 11.0592 21.0944 11.0592a25.63072 25.63072 0 0 0 21.0432-40.192l-18.3296-26.5216C346.9312 302.08 331.008 299.1616 319.3856 307.2a25.63072 25.63072 0 0 0-6.5024 35.6352l18.3296 26.5216z" fill="#FFFFFF" p-id="1002"></path><path d="M682.0864 616.2944h-74.4448V488.6528h57.2928c14.1312 0 25.6-11.4688 25.6-25.6s-11.4688-25.6-25.6-25.6h-57.2928V346.6752h67.2768c14.1312 0 25.6-11.4688 25.6-25.6s-11.4688-25.6-25.6-25.6h-223.744c-14.1312 0-25.6 11.4688-25.6 25.6s11.4688 25.6 25.6 25.6h105.2672v269.568h-40.5504V432.0768c0-14.1312-11.4688-25.6-25.6-25.6s-25.6 11.4688-25.6 25.6v184.2176h-30.1568c-14.1312 0-25.6 11.4688-25.6 25.6s11.4688 25.6 25.6 25.6h247.552c14.1312 0 25.6-11.4688 25.6-25.6 0-14.1824-11.4688-25.6-25.6-25.6z" fill="#FFFFFF" p-id="1003"></path></svg>